<svg xmlns="http://www.w3.org/2000/svg" width="32" height="32" viewBox="0 0 32 32">
  <g id="Group_1103" data-name="Group 1103" transform="translate(-101 -3674)">
    <path id="facebook_3_" data-name="facebook (3)" d="M7.7,20.533H4.41a1,1,0,0,1-1-1V12.12H1.5a1,1,0,0,1-1-1V7.946a1,1,0,0,1,1-1H3.414V5.359A5.419,5.419,0,0,1,4.847,1.477,5.161,5.161,0,0,1,8.652,0L11.16,0a1,1,0,0,1,.994,1V3.951a1,1,0,0,1-1,1H9.47c-.515,0-.646.1-.674.135-.046.052-.1.2-.1.61V6.95h2.337a1.012,1.012,0,0,1,.493.125,1,1,0,0,1,.512.871v3.178a1,1,0,0,1-1,1H8.695v7.417A1,1,0,0,1,7.7,20.533Zm-3.08-1.2H7.491V11.581a.666.666,0,0,1,.665-.665h2.676V8.154H8.156a.666.666,0,0,1-.665-.665v-1.8a2.05,2.05,0,0,1,.4-1.407A2.04,2.04,0,0,1,9.47,3.744H10.95V1.207l-2.3,0A3.8,3.8,0,0,0,4.618,5.359v2.13a.666.666,0,0,1-.665.665H1.7v2.762h2.25a.666.666,0,0,1,.665.665ZM11.157,1.208h0Zm0,0" transform="translate(110.463 3679.314)" fill="#ffdb27"/>
    <g id="Rectangle_30" data-name="Rectangle 30" transform="translate(101 3674)" fill="none" stroke="#ffdb27" stroke-linecap="round" stroke-width="1">
      <rect width="32" height="32" stroke="none"/>
      <rect x="0.5" y="0.5" width="31" height="31" fill="none"/>
    </g>
  </g>
</svg>
