<svg id="Group_39" data-name="Group 39" xmlns="http://www.w3.org/2000/svg" width="28.26" height="38.415" viewBox="0 0 28.26 38.415">
  <path id="Down_Arrow_3_" d="M34.13,40a1.281,1.281,0,0,0-.908.376L20.376,53.222a1.284,1.284,0,1,0,1.816,1.816L34.13,43.1,46.067,55.038a1.284,1.284,0,1,0,1.816-1.816L35.038,40.376A1.281,1.281,0,0,0,34.13,40Z" transform="translate(-20 -29)" fill="#0f396b" opacity="0.7"/>
  <path id="Down_Arrow_3_2" data-name="Down_Arrow_3_" d="M34.13,40a1.281,1.281,0,0,0-.908.376L20.376,53.222a1.284,1.284,0,1,0,1.816,1.816L34.13,43.1,46.067,55.038a1.284,1.284,0,1,0,1.816-1.816L35.038,40.376A1.281,1.281,0,0,0,34.13,40Z" transform="translate(-20 -40)" fill="#0f396b" opacity="0.3"/>
  <path id="Down_Arrow_3_3" data-name="Down_Arrow_3_" d="M34.13,40a1.281,1.281,0,0,0-.908.376L20.376,53.222a1.284,1.284,0,1,0,1.816,1.816L34.13,43.1,46.067,55.038a1.284,1.284,0,1,0,1.816-1.816L35.038,40.376A1.281,1.281,0,0,0,34.13,40Z" transform="translate(-20 -17)" fill="#0f396b"/>
</svg>
