<svg id="google-calendar" xmlns="http://www.w3.org/2000/svg" width="40.088" height="40.088" viewBox="0 0 40.088 40.088">
  <path id="Path_15_" d="M157.321,188.547a4.079,4.079,0,0,1-1.633-2.339l1.83-.754a2.779,2.779,0,0,0,.87,1.472,2.243,2.243,0,0,0,1.5.52,2.309,2.309,0,0,0,1.543-.546,1.744,1.744,0,0,0,.646-1.39,1.724,1.724,0,0,0-.68-1.408,2.639,2.639,0,0,0-1.7-.546h-1.058v-1.812h.949a2.314,2.314,0,0,0,1.48-.475,1.565,1.565,0,0,0,.6-1.3,1.436,1.436,0,0,0-.538-1.174,2.085,2.085,0,0,0-1.364-.44,1.833,1.833,0,0,0-1.282.43,2.524,2.524,0,0,0-.691,1.058l-1.812-.754a4.023,4.023,0,0,1,1.327-1.8,3.826,3.826,0,0,1,2.474-.781,4.512,4.512,0,0,1,2,.43,3.421,3.421,0,0,1,1.39,1.192,3.042,3.042,0,0,1,.5,1.712,2.8,2.8,0,0,1-.467,1.641,3.218,3.218,0,0,1-1.147,1.031v.108a3.484,3.484,0,0,1,1.472,1.147,3.006,3.006,0,0,1,.575,1.846,3.455,3.455,0,0,1-.546,1.92,3.781,3.781,0,0,1-1.506,1.327,4.748,4.748,0,0,1-2.16.485A4.471,4.471,0,0,1,157.321,188.547Z" transform="translate(-143.498 -162.685)" fill="#0085f7"/>
  <path id="Path_14_" d="M284.649,182.849l-2.01,1.453-1-1.524,3.605-2.6h1.382v12.266h-1.973Z" transform="translate(-259.583 -166.07)" fill="#0085f7"/>
  <path id="Path_3_" d="M106.808,390.737h-21.1l-3.02,4.45,3.02,5.044h21.1l2.5-5.367Z" transform="translate(-76.215 -360.143)" fill="#00a94b"/>
  <path id="Path_4_" d="M30.594,0H3.165A3.164,3.164,0,0,0,0,3.165V30.594l4.747,3.375,4.747-3.375V9.495h21.1l3.248-4.747Z" transform="translate(0 0)" fill="#0085f7"/>
  <path id="Path_5_" d="M0,390.737v6.33a3.164,3.164,0,0,0,3.165,3.165h6.33v-9.495Z" transform="translate(0 -360.143)" fill="#00802e"/>
  <path id="Path_6_" d="M400.232,85.3l-4.747-3.055L390.737,85.3v21.1l4.27,2.229,5.225-2.229Z" transform="translate(-360.143 -75.809)" fill="#ffbc00"/>
  <path id="Path_2_" d="M400.232,9.495V3.165A3.164,3.164,0,0,0,397.067,0h-6.33V9.495Z" transform="translate(-360.143)" fill="#0067d5"/>
  <path id="Path_1_" d="M390.737,400.232l9.495-9.495h-9.495Z" transform="translate(-360.143 -360.143)" fill="#ff4131"/>
</svg>
