<svg xmlns="http://www.w3.org/2000/svg" width="83.629" height="77.748" viewBox="0 0 83.629 77.748">
  <path id="car-service_1_" data-name="car-service (1)" d="M28.91,83.338a9.811,9.811,0,0,1-9.8-9.8c.209-11.049,15.257-13.495,19.041-3.267h7.094a3.267,3.267,0,0,1,0,6.533H38.151A9.817,9.817,0,0,1,28.91,83.338Zm0-13.067a3.267,3.267,0,1,0,3.267,3.267A3.27,3.27,0,0,0,28.91,70.271ZM11.434,76.8A11.447,11.447,0,0,1,0,65.371V57.857a13.112,13.112,0,0,1,10.127-12.73L17.9,27.687A16.35,16.35,0,0,1,32.819,18H47.7a16.264,16.264,0,0,1,14.547,8.905l4.2,8.229a3.267,3.267,0,1,1-5.819,2.971l-4.2-8.229A9.758,9.758,0,0,0,47.7,24.537H42.631V36.623a3.267,3.267,0,0,1-6.533,0V24.537H32.819a9.81,9.81,0,0,0-8.951,5.811l-8.5,19.066a3.267,3.267,0,0,1-2.76,1.929,6.547,6.547,0,0,0-6.077,6.515v7.513a4.906,4.906,0,0,0,4.9,4.9,3.267,3.267,0,0,1,0,6.533Zm68.928-15.68a3.267,3.267,0,0,1-3.267-3.267,6.541,6.541,0,0,0-6.533-6.533H25.97a3.267,3.267,0,0,1,0-6.533H70.561A13.082,13.082,0,0,1,83.628,57.857,3.267,3.267,0,0,1,80.361,61.124ZM52.617,94.794l9.036-9.036c9.488,5.733,22.129-1.538,21.975-12.711a3.267,3.267,0,1,0-6.533,0,8.085,8.085,0,1,1-8-8,3.267,3.267,0,1,0,0-6.533C57.448,58.4,50.322,71.792,56.885,81.287L48,90.175a3.267,3.267,0,1,0,4.62,4.62Z" transform="translate(0 -18.003)" fill="#fff"/>
</svg>
