<svg xmlns="http://www.w3.org/2000/svg" width="59.063" height="77.228" viewBox="0 0 59.063 77.228">
  <path id="mechanic" d="M116.155,77.228a3.022,3.022,0,0,1-3.022-3.022,21.844,21.844,0,0,0-10.122-18.379v8.106a3.022,3.022,0,0,1-6.043,0V62.079a8.944,8.944,0,0,1-2.939.494H85.1a8.943,8.943,0,0,1-2.939-.494v1.854a3.022,3.022,0,0,1-6.043,0V55.84A22.531,22.531,0,0,0,66.2,69.335a1.511,1.511,0,0,0,1.473,1.85h36.4a3.022,3.022,0,0,1,0,6.043h-36.4a7.554,7.554,0,0,1-7.36-9.259A28.878,28.878,0,0,1,75,49.521l.022-.011a5.064,5.064,0,0,1,5.012-.04,4.673,4.673,0,0,1,2.125,4.092A2.944,2.944,0,0,0,85.1,56.53h8.927a2.944,2.944,0,0,0,2.94-2.968,4.673,4.673,0,0,1,2.125-4.092,5.064,5.064,0,0,1,5.012.04A27.464,27.464,0,0,1,115,59.55a27.784,27.784,0,0,1,4.177,14.656,3.021,3.021,0,0,1-3.021,3.022Zm-5.137-52.879h-42.6a3.022,3.022,0,0,1,0-6.043h.592c3.033-24.417,37.718-24.4,40.742,0h1.272A3.022,3.022,0,0,1,111.018,24.349ZM75.091,18.306H103.66C100.991,1.892,77.754,1.9,75.091,18.306Zm33.5,13.715a3.022,3.022,0,0,0-5.685-2.049c-4.616,12.587-22.479,12.58-27.105-.167a3.022,3.022,0,1,0-5.674,2.081,20.425,20.425,0,0,0,38.464.135Z" transform="translate(-60.113 0)" fill="#fff"/>
</svg>
