<svg xmlns="http://www.w3.org/2000/svg" width="77.438" height="77.328" viewBox="0 0 77.438 77.328">
  <path id="car-service" d="M62.471,16.7H61.287q-.028-.1-.063-.188s-3.464-9.36-3.5-9.431A10.8,10.8,0,0,0,50.16,1.058a34.587,34.587,0,0,0-13.909.025A10.785,10.785,0,0,0,28.711,7.1c-.036.077-3.421,9.432-3.421,9.432q-.03.083-.055.167H24.2a3.025,3.025,0,0,0,0,6.05h1.21v1.059a9.844,9.844,0,0,0,5.6,8.872V34.25a3.025,3.025,0,0,0,6.05,0v-.605H49.765v.605a3.025,3.025,0,0,0,6.05,0V32.611a9.843,9.843,0,0,0,5.445-8.8V22.754h1.21a3.025,3.025,0,0,0,0-6.05ZM37.5,7A28.534,28.534,0,0,1,48.918,6.98a4.728,4.728,0,0,1,3.27,2.542L54.844,16.7H31.663l2.592-7.172A4.71,4.71,0,0,1,37.5,7ZM34.488,27.9a3.025,3.025,0,1,1,3.025-3.025A3.025,3.025,0,0,1,34.488,27.9Zm17.7-6.05a3.025,3.025,0,1,1-3.025,3.025A3.025,3.025,0,0,1,52.185,21.847ZM73.059,69.289C54.813,80.035,30,81.076,8.954,68.9c-3-1.627-4.967-1.35-5.209-1.308a3.026,3.026,0,1,1-1.329-5.9c.889-.195,4.553-.748,9.423,1.894,18.281,10.543,40.364,10.881,58.368.369a2.257,2.257,0,0,0,.931-3.025l-.028-.055a2.416,2.416,0,0,0-3.1-.936l-.147.056c-6.3,2.391-15.812,6-27.375,6.022a37.8,37.8,0,0,1-9.792-1.158A3.025,3.025,0,1,1,32.232,59a31.686,31.686,0,0,0,8.081.96h.143a20.288,20.288,0,0,0,6.621-.958c1.96-.722,3.1-2.231,2.3-4.171a2.805,2.805,0,0,0-1.914-1.641,5.061,5.061,0,0,0-2-.09,39.694,39.694,0,0,1-5.351.373c-9.351,0-15.642-3.573-20.433-6.294-3.2-1.817-5.727-3.252-8.176-3.252a20.935,20.935,0,0,0-7.289,1.288l-.278.087a3.025,3.025,0,0,1-1.807-5.774l.275-.086c7.76-2.535,12.673-2.225,20.263,2.477,5.445,3.092,11.617,6.6,21.981,5.187,4.273-.685,8.722,1.394,10.326,5.418a9,9,0,0,1,.536,5.281c3.879-1.07,7.3-2.367,10.211-3.473l.147-.056a8.389,8.389,0,0,1,10.617,3.8l.028.055A8.328,8.328,0,0,1,73.059,69.289Z" transform="translate(-0.001 -0.364)" fill="#fff"/>
</svg>
