<svg xmlns="http://www.w3.org/2000/svg" width="31.5" height="19.711" viewBox="0 0 31.5 19.711">
  <g id="Group_1238" data-name="Group 1238" transform="translate(-377.5 -57.5)">
    <path id="Line_48" data-name="Line 48" d="M27.5,2H0A2,2,0,0,1-2,0,2,2,0,0,1,0-2H27.5a2,2,0,0,1,2,2A2,2,0,0,1,27.5,2Z" transform="translate(379.5 59.5)" fill="#0f396b"/>
    <path id="Line_49" data-name="Line 49" d="M21.711,2H0A2,2,0,0,1-2,0,2,2,0,0,1,0-2H21.711a2,2,0,0,1,2,2A2,2,0,0,1,21.711,2Z" transform="translate(382.395 67.355)" fill="#0f396b"/>
    <path id="Line_50" data-name="Line 50" d="M27.5,2H0A2,2,0,0,1-2,0,2,2,0,0,1,0-2H27.5a2,2,0,0,1,2,2A2,2,0,0,1,27.5,2Z" transform="translate(379.5 75.211)" fill="#0f396b"/>
  </g>
</svg>
