<svg id="phone-call" xmlns="http://www.w3.org/2000/svg" width="10.25" height="9.368" viewBox="0 0 10.25 9.368">
  <path id="Path_14" data-name="Path 14" d="M8.611,9.8a1.1,1.1,0,0,0-1.449,0l-.494.446A8.816,8.816,0,0,1,5.13,9.133,8.408,8.408,0,0,1,3.9,7.744L4.39,7.3a.862.862,0,0,0,0-1.309l-.965-.868a1.055,1.055,0,0,0-.719-.271,1.081,1.081,0,0,0-.726.271l-.464.416A1.841,1.841,0,0,0,.957,7.153,6.357,6.357,0,0,0,3.2,10.867,7.606,7.606,0,0,0,7.322,12.9q.143.007.286,0a2.2,2.2,0,0,0,1.5-.5l.46-.419a.881.881,0,0,0,.3-.656.861.861,0,0,0-.3-.65Zm.481,1.743-.464.416a1.679,1.679,0,0,1-1.248.308A6.864,6.864,0,0,1,3.694,10.42,5.905,5.905,0,0,1,1.639,7.1,1.3,1.3,0,0,1,1.98,5.974l.481-.419a.373.373,0,0,1,.484,0l.965.881a.287.287,0,0,1,0,.434l-.682.616a.286.286,0,0,0-.055.373A8.64,8.64,0,0,0,4.649,9.576a9.315,9.315,0,0,0,1.9,1.333.369.369,0,0,0,.413-.049l.682-.616a.367.367,0,0,1,.481,0l.965.871a.281.281,0,0,1,0,.428Z" transform="translate(-0.934 -3.537)" fill="#fff"/>
  <path id="Path_15" data-name="Path 15" d="M18.955,2.5A5.087,5.087,0,0,0,15.341,1a.341.341,0,1,0,0,.682,4.432,4.432,0,0,1,4.432,4.47.341.341,0,1,0,.682,0,5.083,5.083,0,0,0-1.5-3.655Z" transform="translate(-10.205 -1)" fill="#fff"/>
  <path id="Path_16" data-name="Path 16" d="M17.463,8.612a2.046,2.046,0,0,1,.6,1.469.341.341,0,0,0,.682,0A2.727,2.727,0,0,0,16.021,7.32a.341.341,0,1,0,0,.682,2.046,2.046,0,0,1,1.442.61Z" transform="translate(-10.653 -5.426)" fill="#fff"/>
</svg>
