<svg xmlns="http://www.w3.org/2000/svg" width="10.25" height="10.169" viewBox="0 0 10.25 10.169">
  <path id="whatsapp_3_" data-name="whatsapp (3)" d="M5.125,10.169h0a5.135,5.135,0,0,1-2.3-.547l-2.19.5a.4.4,0,0,1-.48-.476L.624,7.486A5.061,5.061,0,0,1,0,5.091s0-.006,0-.008A5.027,5.027,0,0,1,1.509,1.489a5.128,5.128,0,0,1,7.227,0,5.025,5.025,0,0,1,.633,6.439.4.4,0,0,1-.661-.452,4.224,4.224,0,0,0-.537-5.419A4.323,4.323,0,0,0,.8,5.075s0,.005,0,.008a4.28,4.28,0,0,0,.594,2.14.4.4,0,0,1,.045.287L1.067,9.2l1.719-.391a.4.4,0,0,1,.28.039,4.329,4.329,0,0,0,2.057.522h0a4.332,4.332,0,0,0,2.218-.611.4.4,0,0,1,.41.688,5.133,5.133,0,0,1-2.628.724ZM3.994,3.047c-.088-.195-.18-.2-.264-.2H3.506a.431.431,0,0,0-.313.146,1.308,1.308,0,0,0-.41.974,2.27,2.27,0,0,0,.479,1.208,4.807,4.807,0,0,0,2,1.764c.99.389,1.192.312,1.407.292a1.183,1.183,0,0,0,.791-.555.973.973,0,0,0,.068-.555c-.029-.049-.107-.078-.225-.136s-.692-.346-.8-.385-.186-.058-.264.059-.308.387-.377.465-.137.088-.254.029a3.243,3.243,0,0,1-.939-.582,3.591,3.591,0,0,1-.659-.822c-.068-.117-.007-.18.051-.238s.124-.124.183-.192a.786.786,0,0,0,.114-.195.215.215,0,0,0-.01-.2c-.029-.058-.254-.636-.359-.867" fill="#fff"/>
</svg>
